<svg version="1.1" id="Layer_1" xmlns="http://www.w3.org/2000/svg" xmlns:xlink="http://www.w3.org/1999/xlink" x="0px" y="0px"
	 width="100%" viewBox="0 0 608 608" enable-background="new 0 0 608 608" xml:space="preserve">
<path fill="#000000" opacity="1.000000" stroke="none" 
	d="
M203.321777,399.330994 
	C212.205826,389.736206 217.199768,378.274323 222.468826,366.939209 
	C228.807846,353.302368 232.681442,338.832611 237.200989,324.577606 
	C238.345764,320.966919 239.635681,317.314606 244.036682,316.950989 
	C248.696960,316.565918 250.792892,320.164856 252.321793,323.726288 
	C256.592499,333.674500 259.055939,344.216827 261.909210,354.613556 
	C268.616486,379.053406 280.602631,399.991211 300.872345,415.854767 
	C311.733215,424.354828 324.808746,428.060608 336.975159,433.751373 
	C344.276520,437.166565 352.151764,438.661499 359.886230,440.565369 
	C362.949097,441.319305 365.474182,442.426147 365.875885,445.620270 
	C366.296478,448.964508 363.748688,450.821167 361.005310,451.802307 
	C354.587311,454.097687 348.067749,456.109528 341.586914,458.228821 
	C304.436066,470.377319 278.295807,494.638031 262.552307,530.248352 
	C258.176971,540.144958 254.426300,550.289062 251.675385,560.777649 
	C251.464661,561.580933 251.206024,562.382690 250.867874,563.139709 
	C249.626358,565.919189 248.302643,568.969849 244.745590,568.921387 
	C241.083130,568.871582 240.768158,565.391846 239.820129,562.818481 
	C234.774384,549.122131 231.625015,534.750793 224.884186,521.652893 
	C213.960938,500.428314 198.909439,483.248047 177.879120,471.358063 
	C162.593750,462.716156 146.669952,455.724487 130.091141,450.080353 
	C127.014046,449.032776 124.806091,446.739807 125.135902,443.372437 
	C125.467636,439.985413 128.135727,438.484406 131.329224,437.761078 
	C140.234512,435.743988 149.412750,434.448364 157.947083,431.377716 
	C175.778336,424.962067 191.371567,414.917816 203.321777,399.330994 
z"/>
<path fill="#000000" opacity="1.000000" stroke="none" 
	d="
M147.827850,242.164886 
	C132.192551,220.532654 110.253548,208.328781 86.709167,198.315552 
	C79.663559,195.319138 72.548996,192.552383 65.282623,190.148621 
	C62.206535,189.131042 59.881920,187.095810 60.071720,183.645111 
	C60.263245,180.163177 62.869289,178.512863 66.024025,177.810623 
	C72.994629,176.258972 80.108498,175.211807 86.939041,173.196579 
	C106.356560,167.467896 122.864128,157.237823 136.341690,141.796021 
	C150.610901,125.447166 158.512619,105.996780 165.534256,86.005363 
	C168.010651,78.954826 169.892593,71.696915 172.115173,64.555229 
	C173.228851,60.976749 174.671417,57.344189 178.976654,56.867794 
	C183.405228,56.377750 185.451645,59.728474 186.995773,63.164379 
	C191.166794,72.445457 193.556335,82.328407 196.130463,92.101997 
	C202.942642,117.966911 215.317337,140.159164 236.850220,156.740906 
	C242.892609,161.393921 249.758881,164.317108 256.590515,167.335373 
	C269.216583,172.913605 281.969635,178.205231 295.661530,180.686584 
	C298.406921,181.184128 300.391907,182.620377 300.878510,185.337158 
	C301.402740,188.263870 299.309601,189.968521 297.050232,191.175323 
	C290.683746,194.575897 283.541290,195.903076 276.738159,197.909912 
	C258.737366,203.219849 243.603821,212.992508 229.590546,225.093460 
	C210.272171,241.775574 198.925507,263.313477 190.971802,287.012329 
	C189.279831,292.053772 187.831223,297.176514 186.187439,302.234802 
	C185.781204,303.484924 185.124298,304.673340 184.451111,305.812378 
	C183.386444,307.613800 181.920242,309.063141 179.664886,308.835815 
	C177.180374,308.585388 176.262543,306.743439 175.433395,304.534729 
	C170.940399,292.566132 168.177872,280.016571 163.003448,268.270660 
	C158.959839,259.091736 154.478546,250.215790 147.827850,242.164886 
z"/>
<path fill="#000000" opacity="1.000000" stroke="none" 
	d="
M468.927795,375.907257 
	C458.264923,391.713196 452.044250,409.078583 446.655365,426.797577 
	C445.828857,429.515137 445.164764,432.277222 443.401611,434.571625 
	C440.503265,438.343292 436.553955,438.033264 434.972076,433.675446 
	C432.308105,426.336456 429.847046,418.915558 427.558105,411.450134 
	C417.771515,379.531006 399.439606,354.695251 369.609558,338.439575 
	C355.216492,330.596191 340.423187,324.050385 325.020508,318.680939 
	C321.992218,317.625244 319.583099,315.999237 319.681000,312.343811 
	C319.778046,308.721375 322.084839,307.459930 325.284698,306.406036 
	C333.684540,303.639435 342.585571,303.008179 350.926300,300.126221 
	C376.967621,291.128113 396.425720,274.213409 409.629639,250.230331 
	C419.218689,232.813248 425.563446,214.057007 430.824127,194.929855 
	C431.220184,193.489838 431.780090,192.093582 432.290009,190.686462 
	C433.404877,187.610123 435.422241,185.551437 438.828735,185.367157 
	C442.088928,185.190796 444.108521,187.176849 445.492401,189.809891 
	C449.319702,197.091995 451.198242,205.073135 453.242004,212.937805 
	C457.446350,229.116745 462.629395,244.900848 471.844238,258.976074 
	C483.074371,276.129547 497.927765,289.005432 517.325562,296.420258 
	C529.584961,301.106445 541.430542,306.934357 554.626160,308.823547 
	C557.433167,309.225433 559.673767,310.804993 560.013672,313.917328 
	C560.331055,316.824280 558.591125,318.780792 556.109924,319.680054 
	C549.719360,321.996124 543.289673,324.241394 536.772217,326.164093 
	C508.293274,334.565552 486.502563,352.046814 468.927795,375.907257 
z"/>
</svg>